<?xml version="1.0" standalone="no"?>
<!DOCTYPE svg PUBLIC "-//W3C//DTD SVG 20010904//EN"
 "http://www.w3.org/TR/2001/REC-SVG-20010904/DTD/svg10.dtd">
<svg version="1.0" xmlns="http://www.w3.org/2000/svg"
 width="512.000000pt" height="512.000000pt" viewBox="0 0 512.000000 512.000000"
 preserveAspectRatio="xMidYMid meet">

<g transform="translate(0.000000,512.000000) scale(0.100000,-0.100000)"
fill="#000000" stroke="none">
<path d="M2397 5099 c-28 -16 -50 -68 -43 -102 3 -17 55 -91 121 -173 63 -79
115 -146 115 -149 0 -3 -37 -5 -83 -5 -250 0 -586 -84 -842 -210 -650 -320
-1082 -926 -1176 -1650 -15 -118 -15 -395 0 -515 70 -539 330 -1015 746 -1363
177 -149 486 -326 567 -326 68 -1 114 71 87 135 -10 25 -34 42 -133 91 -396
198 -686 482 -875 855 -143 282 -206 551 -205 873 1 193 19 333 68 512 121
442 400 822 799 1091 176 119 459 233 683 277 107 21 304 38 304 27 0 -3 -51
-46 -112 -95 -145 -115 -153 -124 -153 -174 0 -33 6 -45 33 -69 40 -36 77 -37
124 -5 75 51 464 370 475 390 18 30 16 77 -5 106 -49 72 -383 478 -397 484
-25 9 -78 7 -98 -5z"/>
<path d="M3298 4491 c-27 -24 -33 -36 -33 -70 0 -54 16 -69 150 -134 207 -102
341 -195 499 -347 170 -164 293 -333 397 -545 470 -960 64 -2111 -906 -2571
-219 -103 -433 -159 -685 -180 -55 -4 -81 -3 -75 3 6 6 65 54 131 107 75 59
126 108 134 126 26 62 -20 130 -87 130 -21 0 -50 -8 -63 -17 -71 -49 -478
-384 -484 -398 -9 -26 -7 -64 6 -88 15 -28 369 -467 393 -487 10 -8 35 -15 57
-15 33 0 46 7 69 33 34 38 37 74 10 117 -10 17 -64 86 -120 155 l-102 125 88
7 c244 19 418 52 603 116 607 210 1085 683 1304 1292 137 380 158 831 56 1226
-78 301 -231 601 -425 832 -196 235 -435 423 -701 553 -139 68 -169 72 -216
30z"/>
<path d="M1192 3469 c-94 -10 -126 -27 -142 -73 -13 -41 -8 -56 64 -174 82
-136 116 -224 151 -393 45 -218 168 -380 360 -475 131 -65 280 -88 405 -65 76
15 109 78 78 146 -19 43 -59 57 -136 50 -144 -14 -290 42 -390 150 -70 75 -97
130 -123 249 -26 120 -64 236 -105 318 -19 37 -34 70 -34 74 0 4 75 4 168 1
189 -6 307 -30 425 -87 85 -42 167 -126 208 -215 34 -72 56 -186 45 -230 -7
-28 -8 -27 -134 97 -189 186 -217 208 -264 208 -56 0 -98 -43 -98 -100 0 -38
5 -45 73 -107 371 -343 548 -588 648 -897 l31 -95 -45 -108 c-82 -195 -155
-452 -141 -496 18 -61 87 -91 142 -63 39 20 45 32 67 131 35 161 138 423 225
577 23 40 74 121 113 179 l71 106 67 22 c108 35 223 45 360 31 66 -7 131 -9
144 -6 27 7 65 59 65 89 0 30 -29 76 -58 91 -32 16 -179 36 -271 36 -75 0 -75
1 35 91 97 79 217 158 325 214 99 51 128 87 115 140 -9 34 -47 72 -80 81 -32
8 -134 -39 -270 -124 l-96 -61 0 37 c0 74 -65 117 -133 88 -45 -18 -51 -29
-101 -206 l-43 -147 -86 -98 c-48 -53 -122 -144 -164 -202 -77 -104 -77 -105
-87 -77 -5 16 -9 88 -9 159 -1 113 2 140 25 207 40 121 92 204 187 299 70 71
101 94 171 127 229 109 439 147 779 141 109 -2 202 -7 206 -10 3 -4 -8 -30
-25 -59 -97 -165 -157 -327 -214 -585 -28 -124 -46 -181 -81 -253 -81 -163
-223 -281 -395 -328 -81 -22 -255 -24 -361 -5 -67 12 -79 11 -107 -3 -38 -20
-52 -44 -52 -91 0 -88 96 -121 345 -119 109 1 158 6 220 23 152 41 275 113
381 223 130 135 187 252 248 515 68 293 108 394 243 611 36 58 69 117 74 130
13 33 -6 88 -37 108 -59 39 -585 58 -807 29 -223 -29 -456 -107 -597 -199
-188 -123 -329 -324 -384 -550 l-22 -89 -23 32 c-25 34 -24 36 5 136 24 83 24
249 0 330 -105 352 -411 528 -911 524 -88 -1 -197 -6 -243 -10z"/>
</g>
</svg>
